name analog
datacolumns 19
datarows 22
range 0.7524999999999998 0.7629999999999999
endheader
time	ground_force_vx	ground_force_vy	ground_force_vz	ground_force_px	ground_force_py	ground_force_pz	l_ground_force_vx	l_ground_force_vy	l_ground_force_vz	l_ground_force_px	l_ground_force_py	l_ground_force_pz	ground_torque_x	ground_torque_y	ground_torque_z	l_ground_torque_x	l_ground_torque_y	l_ground_torque_z
0.7524999999999998	-0.0	-0.0	-0.0	-238.27642822265625	106.80736541748048	-658.463623046875	-308.7868347167969	-152.67294311523438	-717.4000854492188	-0.0	-0.0	-0.0	-0.0	-0.0	-0.0	159906.390625	47706.89453125	-77965.1015625
0.7529999999999999	-0.0	-0.0	-0.0	-51.39349365234375	51.91355514526367	-538.4785766601562	-76.57405853271484	-105.18550872802734	-551.61328125	-0.0	-0.0	-0.0	-0.0	-0.0	-0.0	121725.3046875	34660.5234375	-23941.0546875
0.7534999999999998	-0.0	-0.0	-0.0	56.594703674316406	8.947572708129883	-577.47509765625	42.60170364379883	-40.25883483886719	-563.6470336914062	-0.0	-0.0	-0.0	-0.0	-0.0	-0.0	127130.296875	30690.009765625	6452.61962890625
0.7539999999999999	-0.0	-0.0	-0.0	126.5706787109375	-13.708490371704102	-609.2464599609375	121.33737182617188	-5.928506851196289	-543.9032592773438	-0.0	-0.0	-0.0	-0.0	-0.0	-0.0	123542.015625	26926.623046875	26048.6875
0.7544999999999998	-0.0	-0.0	-0.0	99.57510375976562	1.1536962985992432	-686.2431640625	152.0745391845703	-5.947501659393311	-567.5078735351562	-0.0	-0.0	-0.0	-0.0	-0.0	-0.0	128475.6796875	26705.78125	32628.701171875
0.7549999999999999	-0.0	-0.0	-0.0	42.64676284790039	55.607215881347656	-749.0159301757812	113.58000183105467	-18.10410690307617	-583.1566162109375	-0.0	-0.0	-0.0	-0.0	-0.0	-0.0	132143.65625	28053.87890625	22903.544921875
0.7554999999999998	-0.0	-0.0	-0.0	3.215153217315674	99.89259338378906	-776.3120727539062	50.67139434814453	-51.84544372558594	-607.3846435546875	-0.0	-0.0	-0.0	-0.0	-0.0	-0.0	137654.125	30572.673828125	7050.8310546875
0.7559999999999999	-0.0	-0.0	-0.0	-32.76689910888672	124.58172607421876	-787.4256591796875	-3.893812656402588	-85.4928970336914	-635.0203857421875	-0.0	-0.0	-0.0	-0.0	-0.0	-0.0	142827.6875	32851.953125	-7200.205078125
0.7564999999999998	-0.0	-0.0	-0.0	-66.82289123535156	153.058837890625	-801.0331420898438	-60.240989685058594	-124.45047760009766	-659.755126953125	-0.0	-0.0	-0.0	-0.0	-0.0	-0.0	148177.9375	34887.27734375	-21935.978515625
0.7569999999999999	-0.0	-0.0	-0.0	-74.28345489501953	172.49789428710938	-827.5477294921875	-100.86741638183594	-144.2239532470703	-688.2415161132812	-0.0	-0.0	-0.0	-0.0	-0.0	-0.0	154239.6875	36515.66015625	-32527.451171875
0.7574999999999998	-0.0	-0.0	-0.0	-40.36512756347656	164.6865234375	-853.8878173828125	-85.5793228149414	-136.45147705078125	-720.8959350585938	-0.0	-0.0	-0.0	-0.0	-0.0	-0.0	162554.984375	36372.22265625	-29849.03515625
0.7579999999999999	-0.0	-0.0	-0.0	32.266632080078125	148.41549682617188	-971.7184448242188	-39.53475189208984	-112.77169036865234	-770.5250854492188	-0.0	-0.0	-0.0	-0.0	-0.0	-0.0	175559.8125	34824.93359375	-19858.322265625
0.7584999999999998	-0.0	-0.0	-0.0	134.12557983398438	96.77379608154295	-1340.4876708984375	1.115785837173462	-93.0655517578125	-853.3379516601562	-0.0	-0.0	-0.0	-0.0	-0.0	-0.0	197394.390625	31679.89453125	-11347.009765625
0.7589999999999999	-0.0	-0.0	-0.0	280.75274658203125	28.77178001403809	-1396.116943359375	42.26222610473633	-67.05046081542969	-1002.5958862304688	-0.0	-0.0	-0.0	-0.0	-0.0	-0.0	240021.359375	22232.615234375	-3376.3916015625
0.7594999999999998	-0.0	-0.0	-0.0	226.8672790527344	30.59509658813477	-1128.8603515625	87.91889953613281	-57.71688079833984	-1134.521240234375	-0.0	-0.0	-0.0	-0.0	-0.0	-0.0	279131.34375	13161.044921875	7951.81494140625
0.7599999999999999	-0.0	-0.0	-0.0	86.18931579589844	80.21112823486328	-1038.4097900390625	117.20401763916016	-54.69759750366211	-1104.3731689453125	-0.0	-0.0	-0.0	-0.0	-0.0	-0.0	271006.8125	14802.9326171875	16408.171875
0.7604999999999998	-0.0	-0.0	-0.0	-7.372947692871094	116.7840805053711	-958.2301025390624	59.3699951171875	-84.8086166381836	-1012.054931640625	-0.0	-0.0	-0.0	-0.0	-0.0	-0.0	243133.140625	24679.076171875	2757.736572265625
0.7609999999999999	-0.0	-0.0	-0.0	-71.12478637695312	138.34561157226562	-876.8576049804688	-13.178369522094728	-118.16510009765624	-946.2928466796876	-0.0	-0.0	-0.0	-0.0	-0.0	-0.0	223553.15625	33789.28125	-15112.8212890625
0.7614999999999998	-0.0	-0.0	-0.0	-106.53271484375	153.12823486328125	-820.738037109375	-60.01639175415039	-131.570068359375	-897.9661254882812	-0.0	-0.0	-0.0	-0.0	-0.0	-0.0	209448.234375	39934.46484375	-26504.544921875
0.7619999999999999	-0.0	-0.0	-0.0	-115.3430633544922	161.1016845703125	-785.2652587890625	-79.40737915039062	-132.48475646972656	-855.187255859375	-0.0	-0.0	-0.0	-0.0	-0.0	-0.0	198710.28125	43152.0078125	-31241.875
0.7624999999999998	-0.0	-0.0	-0.0	-104.13340759277344	156.57887268066406	-759.3176879882812	-75.61898803710938	-123.99512481689452	-818.0243530273438	-0.0	-0.0	-0.0	-0.0	-0.0	-0.0	189636.765625	44279.171875	-30149.95703125
0.7629999999999999	-0.0	-0.0	-0.0	-88.07706451416016	143.61891174316406	-742.3806762695312	-65.99884033203125	-112.46924591064452	-788.537353515625	-0.0	-0.0	-0.0	-0.0	-0.0	-0.0	182743.796875	44512.8515625	-27871.37890625
